<svg width="16" height="16" viewBox="0 0 16 16" fill="none" xmlns="http://www.w3.org/2000/svg">
<path fill-rule="evenodd" clip-rule="evenodd" d="M4.43673 2.80504C3.5367 2.80576 2.80745 3.53501 2.80745 4.43504V5.17366C2.80745 5.60458 2.63666 6.01677 2.33329 6.3223L1.80869 6.84762L1.80725 6.84978C1.17312 7.48824 1.17672 8.51942 1.81518 9.15355L2.33329 9.67239C2.63666 9.9772 2.80745 10.3894 2.80745 10.8196V11.5625C2.80745 12.4626 3.5367 13.1918 4.43673 13.1918H5.17679C5.60699 13.1925 6.0199 13.3626 6.32471 13.666L6.85147 14.1927C7.48993 14.8261 8.52111 14.8225 9.15524 14.1841L9.67407 13.666C9.97889 13.3626 10.3918 13.1918 10.822 13.1918H11.5649C12.465 13.1918 13.1942 12.4626 13.1942 11.5625V10.821C13.1942 10.3908 13.3643 9.97864 13.6677 9.67383L14.1937 9.14779C14.8285 8.50933 14.8249 7.47743 14.1865 6.84258L13.6677 6.32374C13.3643 6.01821 13.1942 5.6053 13.1942 5.1751V4.43504C13.1942 3.53429 12.4642 2.80504 11.5642 2.80504H10.8234C10.3932 2.80504 9.98105 2.63498 9.67551 2.3316L9.15668 1.81277L9.1502 1.80701L9.14947 1.80628C8.51102 1.17143 7.47912 1.17432 6.84426 1.81277L6.32615 2.3316C6.02062 2.63426 5.60843 2.80504 5.17823 2.80504H4.43673ZM6.33398 7.33203C6.88627 7.33203 7.33398 6.88432 7.33398 6.33203C7.33398 5.77975 6.88627 5.33203 6.33398 5.33203C5.7817 5.33203 5.33398 5.77975 5.33398 6.33203C5.33398 6.88432 5.7817 7.33203 6.33398 7.33203ZM10.6673 9.66537C10.6673 10.2176 10.2196 10.6654 9.66732 10.6654C9.11503 10.6654 8.66732 10.2176 8.66732 9.66537C8.66732 9.11308 9.11503 8.66536 9.66732 8.66536C10.2196 8.66536 10.6673 9.11308 10.6673 9.66537ZM10.6875 6.01892C10.8828 5.82366 10.8828 5.50707 10.6875 5.31181C10.4923 5.11655 10.1757 5.11655 9.98043 5.31181L5.31376 9.97848C5.1185 10.1737 5.1185 10.4903 5.31376 10.6856C5.50903 10.8808 5.82561 10.8808 6.02087 10.6856L10.6875 6.01892Z" fill="#FB731D"/>
</svg>
